<svg xmlns="http://www.w3.org/2000/svg" version="1.1" xmlns:xlink="http://www.w3.org/1999/xlink" xmlns:svgjs="http://svgjs.dev/svgjs" width="1000" height="1000" viewBox="0 0 1000 1000"><rect width="1000" height="1000" fill="#ffffff"></rect><g transform="matrix(0.7,0,0,0.7,149.5641035201843,101.7000011545648)"><svg viewBox="0 0 246 280" data-background-color="#ffffff" preserveAspectRatio="xMidYMid meet" height="1138" width="1000" xmlns="http://www.w3.org/2000/svg" xmlns:xlink="http://www.w3.org/1999/xlink"><defs></defs><g id="tight-bounds" transform="matrix(1,0,0,1,0.15318647719237788,-4.0582241922493267e-7)"><svg viewBox="0 0 245.69362704561522 280" height="280" width="245.69362704561522"><g><svg viewBox="0 0 278.2696 317.124578837913" height="280" width="245.69362704561522"><g><svg viewBox="0 0 278.2696 317.124578837913" height="317.124578837913" width="278.2696"><g><svg viewBox="0 0 278.2696 317.124578837913" height="317.124578837913" width="278.2696"><g><svg viewBox="0 0 278.2696 278.2696" height="278.2696" width="278.2696"><g transform="matrix(1,0,0,1,95.79111501549403,73.54602628064397)"><svg viewBox="0 0 86.68736996901197 131.17754743871208" height="131.17754743871208" width="86.68736996901197"><g><svg version="1.1" xmlns="http://www.w3.org/2000/svg" xmlns:xlink="http://www.w3.org/1999/xlink" x="0" y="0" viewBox="0 0 66.08399963378906 100" enable-background="new 0 0 66.084 100" xml:space="preserve" width="86.68736996901197" height="131.17754743871208" class="icon-o-0" data-fill-palette-color="accent" id="o-0"><path d="M19.354 0L0 6.911v66.004L47.722 100l4.081-1.458V95.92l10.201-3.644v2.623l4.08-1.457V26.551L19.354 0zM62.003 87.944l-10.2 3.643-0.001-59.936L9.755 7.761l9.209-3.29 43.039 24.455V87.944z" fill="#49beb7" data-fill-palette-color="accent"></path></svg></g></svg></g><path d="M28.925 105.196c-0.403 1.064-0.87 2.418-1.401 4.064-0.536 1.643-0.888 2.723-1.054 3.239v0l-3.434-1.715c0.202-1.104 0.177-1.917-0.074-2.44-0.26-0.518-0.867-0.959-1.823-1.321v0l-14.17-5.429c-1.216-0.461-1.959-0.334-2.23 0.381v0c-0.101 0.266-0.189 0.537-0.265 0.812-0.076 0.276-0.134 0.467-0.174 0.575v0l-0.655 0.295-3.001-1.682 2.636-6.691c0.41-1.177 0.892-2.591 1.446-4.242 0.554-1.651 0.941-2.815 1.161-3.491v0c1.126-2.969 2.518-5.016 4.176-6.14 1.653-1.133 3.499-1.312 5.538-0.539v0c1.355 0.514 2.379 1.297 3.073 2.35 0.688 1.05 1.205 2.322 1.551 3.815v0c1.087-1.282 2.236-2.219 3.445-2.811 1.207-0.585 2.605-0.576 4.194 0.027v0c5.539 2.101 6.862 6.966 3.969 14.595v0c-0.303 0.551-0.812 1.615-1.526 3.19-0.722 1.58-1.183 2.633-1.382 3.158zM14.913 95.515c0.146-0.213 0.419-0.674 0.818-1.384 0.408-0.714 0.682-1.255 0.822-1.622v0c0.057 0.022-0.009-0.177-0.198-0.597-0.193-0.428-0.486-0.858-0.879-1.289-0.391-0.438-0.907-0.778-1.546-1.021v0c-0.924-0.351-1.725-0.292-2.402 0.175-0.679 0.474-1.265 1.359-1.758 2.657v0c-0.101 0.266-0.13 0.458-0.088 0.575 0.046 0.126 0.169 0.242 0.369 0.346v0c0.694 0.328 1.592 0.738 2.695 1.229 1.103 0.491 1.825 0.801 2.167 0.931zM20.008 97.545l3.894 1.705c0.639 0.243 1.192 0.188 1.659-0.163 0.469-0.358 0.894-1.04 1.276-2.047v0c0.372-0.981 0.409-1.814 0.112-2.5-0.302-0.694-0.931-1.222-1.887-1.584v0c-0.658-0.25-1.325-0.249-1.999 0.002-0.666 0.247-1.287 0.729-1.862 1.444v0zM64.287 53.642c-3.13 2.663-6.286 3.797-9.467 3.402-3.186-0.401-6.22-2.295-9.103-5.684v0c-3.085-3.625-4.542-7.172-4.373-10.641 0.17-3.478 1.969-6.676 5.398-9.594v0c3.192-2.716 6.337-3.894 9.435-3.534 3.098 0.36 6.097 2.245 8.998 5.654v0c3.102 3.646 4.576 7.237 4.42 10.774-0.15 3.533-1.919 6.74-5.308 9.623zM61.43 49.046c0.928-0.79 1.244-1.756 0.947-2.899-0.302-1.139-1.26-2.657-2.875-4.555v0c-1.689-1.985-3.114-3.472-4.274-4.459-1.155-0.991-2.158-1.56-3.011-1.705-0.853-0.146-1.645 0.093-2.378 0.716v0c-0.908 0.772-1.216 1.71-0.925 2.815 0.295 1.109 1.25 2.613 2.864 4.511v0c1.689 1.985 3.118 3.477 4.287 4.473 1.163 1.002 2.173 1.587 3.028 1.758 0.846 0.169 1.625-0.049 2.337-0.655zM115.681 28.585c-4.026 0.828-7.338 0.304-9.936-1.574-2.6-1.884-4.348-5.005-5.245-9.362v0c-0.959-4.662-0.53-8.473 1.287-11.433 1.823-2.967 4.939-4.905 9.35-5.812v0c4.105-0.845 7.429-0.364 9.971 1.442 2.542 1.806 4.265 4.902 5.167 9.286v0c0.965 4.689 0.528 8.546-1.31 11.572-1.832 3.025-4.926 4.985-9.284 5.881zM115.388 23.181c1.194-0.246 1.936-0.941 2.226-2.086 0.283-1.144 0.174-2.936-0.329-5.376v0c-0.525-2.553-1.059-4.542-1.601-5.965-0.535-1.425-1.141-2.406-1.819-2.944-0.678-0.538-1.487-0.71-2.429-0.516v0c-1.167 0.24-1.889 0.914-2.166 2.022-0.275 1.114-0.162 2.892 0.341 5.332v0c0.525 2.553 1.06 4.548 1.605 5.985 0.538 1.438 1.141 2.437 1.809 2.998 0.66 0.555 1.448 0.739 2.363 0.55zM170.241 7.472c0.265-0.832 0.347-1.414 0.246-1.744-0.101-0.331-0.435-0.586-1.003-0.767v0l-1.067-0.296-0.187-0.689 1.347-2.96 6.47 2.111c1.213 0.386 2.545 0.778 3.996 1.175 1.442 0.402 2.452 0.68 3.027 0.835v0l-1.438 3.55c-1.078-0.073-1.811-0.015-2.198 0.175-0.387 0.189-0.705 0.632-0.955 1.327v0l-4.788 14.08c-0.393 1.125-0.557 1.897-0.491 2.316 0.057 0.423 0.354 0.72 0.889 0.89v0c0.355 0.113 0.649 0.192 0.883 0.239 0.24 0.048 0.392 0.064 0.454 0.048v0l0.199 0.511-1.451 3.29c-0.527-0.196-1.481-0.538-2.86-1.027-1.375-0.48-2.659-0.91-3.853-1.289v0c-1.052-0.335-2.328-0.712-3.828-1.133-1.503-0.414-2.487-0.681-2.954-0.801v0l1.416-3.344c1.152 0.132 1.964 0.035 2.437-0.29 0.473-0.326 0.89-1.056 1.251-2.192v0zM176.712 16.714l6.254-3.947c0.355-0.178 0.661-0.415 0.919-0.709 0.255-0.288 0.43-0.581 0.524-0.878v0c0.146-0.458 0.126-0.82-0.06-1.085-0.184-0.272-0.581-0.519-1.192-0.742v0l-0.113-0.483 1.424-3.203c0.432 0.138 1.213 0.407 2.343 0.809 1.134 0.41 2.269 0.796 3.405 1.158v0c1.026 0.326 2.148 0.651 3.367 0.975 1.223 0.332 2.068 0.558 2.534 0.678v0l0.167 0.714-1.325 2.925c-1.181 0.25-2.396 0.698-3.646 1.345-1.242 0.642-2.641 1.547-4.199 2.714v0l-2.464 1.849 1.457 8.585c0.242 1.384 0.569 2.455 0.983 3.211 0.413 0.757 1.021 1.323 1.825 1.7v0l0.216 0.73-1.4 2.858c-0.558-0.121-1.644-0.37-3.258-0.748-1.62-0.38-2.646-0.639-3.078-0.777v0c-1.052-0.335-1.829-0.841-2.33-1.519-0.493-0.683-0.856-1.743-1.088-3.181v0l-1.856-11.824zM214.441 53.25l2.75-2.371c0.993 0.609 1.774 0.872 2.342 0.789 0.568-0.082 1.256-0.543 2.064-1.382v0l10.203-10.591c0.606-0.629 0.937-1.114 0.993-1.455 0.056-0.341-0.131-0.718-0.56-1.132v0l-0.826-0.739 0.138-0.699 2.454-2.05 4.93 4.749c0.488 0.47 2.29 2.107 5.408 4.913v0l-2.862 2.546c-0.791-0.565-1.388-0.853-1.79-0.865-0.402-0.012-0.9 0.247-1.494 0.775v0c-3.601 3.338-7.179 6.853-10.736 10.544v0c-0.827 0.858-1.306 1.487-1.437 1.888-0.136 0.405-0.012 0.793 0.374 1.163v0c0.39 0.376 0.747 0.659 1.072 0.85v0l-0.048 0.546-2.758 2.307c-2.163-2.244-3.828-3.927-4.993-5.049v0c-1.102-1.062-2.844-2.64-5.224-4.737zM243.875 92.978l3.782-1.048c0.523 1.077 0.984 1.852 1.384 2.324 0.404 0.464 0.871 0.72 1.402 0.769 0.528 0.042 1.218-0.095 2.068-0.412v0l14.262-5.3c-0.276-0.743-0.613-1.242-1.012-1.499-0.401-0.263-1.005-0.342-1.811-0.237-0.806 0.105-2.031 0.386-3.674 0.845v0l-2.16-4.82c3.169-0.997 6.689-2.187 10.56-3.568v0l0.747 0.318 1.325 4.904 4.649 12.51 2.229 4.654-0.361 0.719c-4.466 1.725-7.814 3.045-10.046 3.962v0l-2.157-4.811c1.785-0.815 3.025-1.442 3.722-1.882 0.7-0.448 1.109-0.874 1.226-1.279 0.123-0.407 0.047-0.982-0.23-1.724v0c-4.886 1.664-9.769 3.404-14.649 5.217v0c-1.009 0.375-1.663 0.792-1.963 1.25-0.299 0.458-0.306 1.071-0.021 1.839v0c0.179 0.482 0.47 1.147 0.872 1.995v0l-0.164 0.288-3.876 1.029c-1.144-3.562-2.066-6.286-2.766-8.171v0c-0.651-1.752-1.764-4.376-3.338-7.872zM8.633 186.652c-0.398-1.051-0.937-2.364-1.619-3.937-0.688-1.571-1.14-2.602-1.354-3.093v0l3.676-0.989c0.572 0.957 1.123 1.544 1.655 1.763 0.538 0.216 1.279 0.146 2.222-0.21v0l14.084-5.284c1.203-0.455 1.671-1.037 1.402-1.746v0c-0.098-0.26-0.21-0.518-0.336-0.774-0.124-0.25-0.206-0.429-0.247-0.537v0l0.299-0.645 3.33-0.727 2.434 6.691c0.464 1.149 1.036 2.518 1.716 4.107 0.674 1.591 1.147 2.708 1.419 3.351v0c1.114 2.945 1.427 5.382 0.941 7.31-0.489 1.922-1.744 3.266-3.764 4.03v0c-1.336 0.505-2.609 0.596-3.818 0.271-1.202-0.327-2.419-0.931-3.649-1.812v0c0.03 1.668-0.211 3.117-0.724 4.346-0.512 1.229-1.557 2.142-3.134 2.738v0c-5.491 2.077-9.666-0.666-12.526-8.228v0c-0.136-0.607-0.456-1.731-0.961-3.372-0.498-1.643-0.847-2.727-1.046-3.253zM25.386 184.638c0.038 0.253 0.138 0.777 0.301 1.569 0.169 0.79 0.324 1.372 0.465 1.746v0c-0.057 0.022 0.123 0.124 0.539 0.307 0.419 0.189 0.919 0.315 1.5 0.377 0.577 0.071 1.182-0.013 1.816-0.253v0c0.918-0.347 1.473-0.919 1.664-1.715 0.2-0.792 0.055-1.834-0.433-3.126v0c-0.098-0.26-0.206-0.421-0.325-0.485-0.11-0.06-0.274-0.063-0.492-0.01v0c-0.731 0.211-1.666 0.496-2.804 0.855-1.145 0.361-1.888 0.606-2.231 0.735zM20.272 186.474l-4.005 1.298c-0.633 0.24-1.009 0.642-1.128 1.208-0.11 0.57 0.023 1.352 0.399 2.347v0c0.369 0.975 0.892 1.621 1.568 1.937 0.671 0.318 1.481 0.298 2.431-0.062v0c0.652-0.247 1.146-0.683 1.481-1.309 0.337-0.62 0.481-1.387 0.432-2.303v0zM49.502 247.809c-3.097-2.639-4.704-5.551-4.819-8.736-0.114-3.175 1.258-6.44 4.117-9.795v0c3.061-3.592 6.305-5.578 9.733-5.958 3.423-0.384 6.832 0.871 10.229 3.766v0c3.164 2.696 4.815 5.588 4.951 8.675 0.136 3.087-1.234 6.318-4.111 9.694v0c-3.078 3.613-6.357 5.623-9.835 6.03-3.488 0.408-6.91-0.817-10.265-3.676zM53.558 244.287c0.917 0.782 1.91 0.938 2.977 0.468 1.072-0.475 2.409-1.652 4.011-3.533v0c1.673-1.964 2.9-3.591 3.681-4.884 0.786-1.288 1.183-2.359 1.191-3.214 0.013-0.861-0.344-1.601-1.07-2.22v0c-0.897-0.764-1.862-0.915-2.897-0.454-1.044 0.463-2.367 1.635-3.97 3.516v0c-1.673 1.964-2.907 3.594-3.701 4.892-0.795 1.298-1.208 2.378-1.24 3.241-0.028 0.857 0.312 1.587 1.018 2.188zM111.032 277.863c-3.985-0.822-6.795-2.602-8.429-5.338-1.629-2.728-1.998-6.251-1.107-10.567v0c0.954-4.622 2.841-7.924 5.663-9.907 2.815-1.984 6.408-2.525 10.778-1.624v0c4.072 0.84 6.91 2.58 8.515 5.221 1.605 2.64 1.96 6.132 1.064 10.476v0c-0.959 4.649-2.865 7.989-5.718 10.02-2.861 2.037-6.45 2.61-10.766 1.719zM112.891 272.823c1.18 0.244 2.125-0.097 2.835-1.023 0.711-0.932 1.316-2.608 1.815-5.028v0c0.521-2.527 0.813-4.544 0.875-6.052 0.069-1.507-0.099-2.637-0.503-3.391-0.403-0.761-1.072-1.237-2.007-1.431v0c-1.154-0.238-2.073 0.094-2.757 0.997-0.692 0.908-1.288 2.572-1.787 4.993v0c-0.521 2.527-0.818 4.55-0.89 6.07-0.072 1.52 0.086 2.666 0.473 3.437 0.388 0.765 1.037 1.241 1.946 1.428zM163.827 256.435c-0.262-0.826-0.53-1.345-0.804-1.556-0.271-0.205-0.688-0.219-1.249-0.04v0l-1.033 0.371-0.536-0.448-0.611-3.163 6.44-2.003c1.2-0.381 2.501-0.826 3.902-1.335 1.403-0.503 2.382-0.856 2.935-1.061v0l0.866 3.7c-0.916 0.561-1.475 1.026-1.677 1.396-0.207 0.378-0.213 0.917-0.019 1.616v0l4.184 14.144c0.331 1.131 0.641 1.85 0.929 2.155 0.289 0.306 0.701 0.374 1.237 0.204v0c0.348-0.111 0.632-0.215 0.85-0.312 0.218-0.098 0.348-0.167 0.391-0.21v0l0.455 0.293 0.706 3.495c-0.546 0.138-1.512 0.406-2.899 0.803-1.393 0.4-2.677 0.786-3.852 1.16v0c-1.045 0.332-2.296 0.758-3.75 1.277-1.453 0.525-2.404 0.874-2.855 1.045v0l-0.766-3.519c1.004-0.553 1.606-1.096 1.806-1.628 0.198-0.539 0.119-1.37-0.238-2.493v0zM174.351 260.211l2.803-6.773c0.181-0.349 0.292-0.714 0.334-1.097 0.042-0.383 0.016-0.723-0.079-1.019v0c-0.143-0.452-0.368-0.732-0.672-0.842-0.298-0.111-0.758-0.082-1.379 0.087v0l-0.371-0.33-0.688-3.405c0.426-0.135 1.216-0.365 2.371-0.689 1.15-0.316 2.287-0.652 3.409-1.009v0c1.02-0.324 2.114-0.703 3.283-1.138 1.177-0.431 1.988-0.731 2.432-0.901v0l0.558 0.484 0.589 3.127c-0.809 0.875-1.533 1.929-2.172 3.162-0.636 1.239-1.252 2.778-1.848 4.615v0l-0.931 2.907 6.084 6.102c0.995 0.984 1.875 1.664 2.641 2.039 0.766 0.375 1.582 0.485 2.449 0.33v0l0.588 0.474 0.508 3.11c-0.519 0.222-1.543 0.643-3.073 1.264-1.531 0.614-2.51 0.989-2.935 1.124v0c-1.045 0.332-1.961 0.367-2.748 0.106-0.795-0.266-1.695-0.918-2.699-1.956v0l-8.276-8.507zM229.828 246.845l-2.246-2.814c0.635-0.96 0.925-1.724 0.868-2.29-0.061-0.571-0.491-1.271-1.29-2.1v0l-10.114-10.494c-0.601-0.624-1.071-0.97-1.41-1.039-0.334-0.064-0.713 0.109-1.137 0.518v0l-0.762 0.79-0.679-0.163-1.951-2.507 4.885-4.708c0.483-0.465 2.171-2.191 5.067-5.179v0l2.416 2.932c-0.589 0.765-0.899 1.346-0.93 1.743-0.022 0.397 0.218 0.899 0.719 1.507v0c3.169 3.688 6.518 7.363 10.047 11.025v0c0.818 0.848 1.424 1.346 1.818 1.492 0.395 0.146 0.785 0.034 1.17-0.338v0c0.385-0.371 0.679-0.711 0.881-1.018v0l0.538 0.06 2.181 2.82c-2.303 2.06-4.03 3.644-5.18 4.753v0c-1.092 1.052-2.722 2.722-4.891 5.01zM264.98 198.901l-3.512-1.66c0.304-1.151 0.458-2.033 0.46-2.645 0.003-0.613-0.182-1.107-0.554-1.484-0.367-0.374-0.972-0.718-1.817-1.031v0l-14.142-5.242c-0.273 0.736-0.342 1.332-0.207 1.786 0.129 0.452 0.532 0.901 1.211 1.348 0.673 0.444 1.775 1.026 3.307 1.746v0l-1.5 5.011c-3.027-1.303-6.438-2.686-10.236-4.151v0l-0.361-0.719 2.182-4.542 4.596-12.4 1.334-4.943 0.743-0.309c4.469 1.599 7.839 2.776 10.108 3.53v0l-1.5 5.012c-1.865-0.54-3.205-0.87-4.019-0.992-0.806-0.125-1.385-0.073-1.738 0.158-0.359 0.228-0.675 0.71-0.948 1.446v0c4.744 1.91 9.538 3.763 14.383 5.559v0c1.003 0.372 1.764 0.481 2.283 0.327 0.526-0.152 0.93-0.609 1.212-1.371v0c0.177-0.476 0.384-1.161 0.621-2.055v0l0.313-0.112 3.583 1.729c-1.448 3.42-2.519 6.064-3.211 7.931v0c-0.645 1.74-1.509 4.431-2.591 8.073zM0.966 142.119c0-5.91 4.791-10.7 10.7-10.7 5.91 0 10.7 4.791 10.701 10.7 0 5.91-4.791 10.7-10.701 10.701-5.91 0-10.7-4.791-10.7-10.701zM255.332 142.119c0-5.91 4.791-10.7 10.7-10.7 5.91 0 10.7 4.791 10.701 10.7 0 5.91-4.791 10.7-10.701 10.701-5.91 0-10.7-4.791-10.7-10.701z" fill="#085f63" data-fill-palette-color="primary"></path></svg></g><g transform="matrix(1,0,0,1,0,295.46666128000004)"><svg viewBox="0 0 278.2696 21.65791755791297" height="21.65791755791297" width="278.2696"><g transform="matrix(1,0,0,1,0,0)"><svg width="278.2696" viewBox="1.0499999523162842 -35.099998474121094 461.8500061035156 35.94999694824219" height="21.65791755791297" data-palette-color="#49beb7"><path d="M18.25 0.85L18.25 0.85Q13.4 0.85 9.5-1.15 5.6-3.15 3.33-7.05 1.05-10.95 1.05-16.55L1.05-16.55Q1.05-20.75 2.43-24 3.8-27.25 6.23-29.48 8.65-31.7 11.8-32.83 14.95-33.95 18.5-33.95L18.5-33.95Q21.25-33.95 23.65-33.33 26.05-32.7 28.25-31.5L28.25-31.5 28.45-24.95 27.1-24.95 25-28.9Q24.5-29.9 23.93-30.7 23.35-31.5 22.45-31.85L22.45-31.85Q21.2-32.45 19.5-32.45L19.5-32.45Q16.55-32.45 14.13-30.95 11.7-29.45 10.25-25.98 8.8-22.5 8.8-16.5L8.8-16.5Q8.8-10.55 10.18-7.05 11.55-3.55 13.9-2.08 16.25-0.6 19.2-0.6L19.2-0.6Q20.55-0.6 21.4-0.8 22.25-1 23.1-1.35L23.1-1.35Q24.1-1.75 24.65-2.53 25.2-3.3 25.6-4.3L25.6-4.3 27.5-8.85 28.85-8.85 28.65-1.65Q26.5-0.45 23.9 0.2 21.3 0.85 18.25 0.85ZM43.7 0L31.2 0 31.2-0.95 31.95-1.2Q32.95-1.45 33.32-2.05 33.7-2.65 33.7-3.65L33.7-3.65 33.7-18.3Q33.65-19.4 33.3-19.98 32.95-20.55 31.95-20.75L31.95-20.75 31.2-20.95 31.2-21.85 39.35-24.75 39.95-24.2 40.4-19.8 40.4-19.45Q41.15-20.85 42.3-22.05 43.45-23.25 44.8-24 46.15-24.75 47.5-24.75L47.5-24.75Q49.4-24.75 50.35-23.75 51.3-22.75 51.3-21.2L51.3-21.2Q51.3-19.5 50.35-18.63 49.4-17.75 48.05-17.75L48.05-17.75Q46.05-17.75 44.6-19.55L44.6-19.55 44.5-19.65Q44-20.25 43.37-20.33 42.75-20.4 42.15-19.7L42.15-19.7Q41.65-19.2 41.22-18.53 40.8-17.85 40.45-16.95L40.45-16.95 40.45-3.85Q40.45-2.9 40.85-2.27 41.25-1.65 42.2-1.4L42.2-1.4 43.7-0.95 43.7 0ZM65.45-24.75L65.45-24.75Q68.59-24.75 70.84-23.45 73.09-22.15 74.32-19.88 75.55-17.6 75.55-14.65L75.55-14.65Q75.55-14 75.5-13.43 75.45-12.85 75.3-12.35L75.3-12.35 60.25-12.35Q60.3-7.2 62.17-4.95 64.05-2.7 67.65-2.7L67.65-2.7Q70.15-2.7 71.7-3.53 73.25-4.35 74.55-5.85L74.55-5.85 75.34-5.1Q73.84-2.35 71.27-0.83 68.7 0.7 65.15 0.7L65.15 0.7Q61.6 0.7 58.9-0.8 56.2-2.3 54.67-5.13 53.15-7.95 53.15-11.9L53.15-11.9Q53.15-16 54.92-18.85 56.7-21.7 59.52-23.23 62.35-24.75 65.45-24.75ZM65.2-23.3L65.2-23.3Q63.75-23.3 62.67-22.48 61.6-21.65 60.97-19.58 60.35-17.5 60.25-13.75L60.25-13.75 69.2-13.75Q69.75-18.8 68.8-21.05 67.84-23.3 65.2-23.3ZM85.34 0.7L85.34 0.7Q82.49 0.7 80.52-0.93 78.54-2.55 78.54-5.6L78.54-5.6Q78.54-8 80.87-10.03 83.19-12.05 88.19-13L88.19-13Q89.04-13.2 90.17-13.38 91.29-13.55 92.39-13.75L92.39-13.75 92.39-17.3Q92.39-20.7 91.54-22 90.69-23.3 88.84-23.3L88.84-23.3 88.69-23.3Q87.54-23.3 86.87-22.58 86.19-21.85 85.99-20.2L85.99-20.2 85.84-19.55Q85.69-17.55 84.79-16.63 83.89-15.7 82.54-15.7L82.54-15.7Q81.29-15.7 80.47-16.48 79.64-17.25 79.64-18.5L79.64-18.5Q79.64-20.55 81.04-21.95 82.44-23.35 84.77-24.05 87.09-24.75 89.79-24.75L89.79-24.75Q94.24-24.75 96.59-22.6 98.94-20.45 98.94-15.6L98.94-15.6 98.94-4.45Q98.94-2.3 100.99-2.3L100.99-2.3 102.14-2.3 102.64-1.75Q101.74-0.6 100.64 0.03 99.54 0.65 97.64 0.65L97.64 0.65Q95.49 0.65 94.22-0.38 92.94-1.4 92.54-3.1L92.54-3.1Q90.94-1.4 89.39-0.35 87.84 0.7 85.34 0.7ZM88.24-2.5L88.24-2.5Q89.24-2.5 90.14-2.95 91.04-3.4 92.39-4.45L92.39-4.45 92.39-12.45Q91.09-12.25 89.74-11.95L89.74-11.95Q87.59-11.45 86.27-10.1 84.94-8.75 84.94-6.45L84.94-6.45Q84.94-4.45 85.87-3.48 86.79-2.5 88.24-2.5ZM113.19 0.7L113.19 0.7Q110.09 0.7 108.32-0.83 106.54-2.35 106.54-5.8L106.54-5.8Q106.54-7 106.57-8.08 106.59-9.15 106.59-10.6L106.59-10.6 106.59-22.45 103.04-22.45 103.04-23.55 104.39-23.75Q105.84-24 106.87-24.65 107.89-25.3 108.74-26.45L108.74-26.45 111.99-30.95 113.49-30.95 113.34-24 119.04-24 119.04-22.45 113.29-22.45 113.29-5.4Q113.29-3.6 114.07-2.7 114.84-1.8 115.99-1.8L115.99-1.8Q116.99-1.8 117.79-2.27 118.59-2.75 119.39-3.55L119.39-3.55 120.04-2.8Q119.09-1.15 117.39-0.23 115.69 0.7 113.19 0.7ZM134.19-24.75L134.19-24.75Q137.34-24.75 139.59-23.45 141.84-22.15 143.06-19.88 144.29-17.6 144.29-14.65L144.29-14.65Q144.29-14 144.24-13.43 144.19-12.85 144.04-12.35L144.04-12.35 128.99-12.35Q129.04-7.2 130.91-4.95 132.79-2.7 136.39-2.7L136.39-2.7Q138.89-2.7 140.44-3.53 141.99-4.35 143.29-5.85L143.29-5.85 144.09-5.1Q142.59-2.35 140.01-0.83 137.44 0.7 133.89 0.7L133.89 0.7Q130.34 0.7 127.64-0.8 124.94-2.3 123.41-5.13 121.89-7.95 121.89-11.9L121.89-11.9Q121.89-16 123.66-18.85 125.44-21.7 128.26-23.23 131.09-24.75 134.19-24.75ZM133.94-23.3L133.94-23.3Q132.49-23.3 131.41-22.48 130.34-21.65 129.71-19.58 129.09-17.5 128.99-13.75L128.99-13.75 137.94-13.75Q138.49-18.8 137.54-21.05 136.59-23.3 133.94-23.3ZM178.93 0L165.13 0 165.13-1.05 166.58-1.4Q167.58-1.65 167.98-2.25 168.38-2.85 168.43-3.85L168.43-3.85 168.43-12.9 160.38-29.35Q159.88-30.35 159.43-30.85 158.98-31.35 158.13-31.65L158.13-31.65 157.23-32 157.23-33.05 170.48-33.05 170.48-32 169.58-31.7Q168.48-31.35 168.38-30.58 168.28-29.8 168.83-28.6L168.83-28.6 174.53-16 180.68-28.95Q181.13-29.85 181.08-30.7 181.03-31.55 180.03-31.8L180.03-31.8 179.33-32 179.33-33.05 185.88-33.05 185.88-32 184.88-31.7Q183.88-31.4 183.46-30.8 183.03-30.2 182.58-29.2L182.58-29.2 175.63-14.75 175.63-3.85Q175.63-1.8 177.43-1.4L177.43-1.4 178.93-1.05 178.93 0ZM199.78 0.7L199.78 0.7Q196.08 0.7 193.31-0.85 190.53-2.4 189.01-5.25 187.48-8.1 187.48-12.05L187.48-12.05Q187.48-16 189.11-18.85 190.73-21.7 193.51-23.23 196.28-24.75 199.78-24.75L199.78-24.75Q203.28-24.75 206.06-23.23 208.83-21.7 210.46-18.88 212.08-16.05 212.08-12.05L212.08-12.05Q212.08-8.1 210.56-5.23 209.03-2.35 206.28-0.83 203.53 0.7 199.78 0.7ZM199.78-0.7L199.78-0.7Q201.58-0.7 202.71-1.68 203.83-2.65 204.33-5.1 204.83-7.55 204.83-11.95L204.83-11.95Q204.83-16.4 204.33-18.88 203.83-21.35 202.71-22.33 201.58-23.3 199.78-23.3L199.78-23.3Q197.98-23.3 196.88-22.33 195.78-21.35 195.26-18.88 194.73-16.4 194.73-11.95L194.73-11.95Q194.73-7.55 195.26-5.1 195.78-2.65 196.88-1.68 197.98-0.7 199.78-0.7ZM223.33 0.7L223.33 0.7Q221.38 0.7 219.78-0.03 218.18-0.75 217.25-2.43 216.33-4.1 216.38-6.85L216.38-6.85 216.53-19.4Q216.53-20.5 216.18-21 215.83-21.5 214.93-21.7L214.93-21.7 214.33-21.9 214.33-22.8 222.88-24.45 223.43-23.9 223.18-16.85 223.18-5.5Q223.18-3.8 224.1-3.03 225.03-2.25 226.43-2.25L226.43-2.25Q227.88-2.25 229.05-2.68 230.23-3.1 231.48-3.95L231.48-3.95 231.63-19.35Q231.63-20.5 231.3-20.95 230.98-21.4 230.08-21.65L230.08-21.65 229.53-21.8 229.53-22.7 237.88-24.45 238.43-23.9 238.28-16.85 238.28-3.75Q238.28-2.7 238.55-2.08 238.83-1.45 239.78-1.15L239.78-1.15 240.43-0.95 240.43 0 231.98 0.5 231.53-2.65Q229.83-1.2 227.83-0.25 225.83 0.7 223.33 0.7ZM254.98 0L242.48 0 242.48-0.95 243.23-1.2Q244.23-1.45 244.6-2.05 244.98-2.65 244.98-3.65L244.98-3.65 244.98-18.3Q244.93-19.4 244.58-19.98 244.23-20.55 243.23-20.75L243.23-20.75 242.48-20.95 242.48-21.85 250.63-24.75 251.23-24.2 251.68-19.8 251.68-19.45Q252.43-20.85 253.58-22.05 254.73-23.25 256.07-24 257.43-24.75 258.78-24.75L258.78-24.75Q260.68-24.75 261.63-23.75 262.57-22.75 262.57-21.2L262.57-21.2Q262.57-19.5 261.63-18.63 260.68-17.75 259.32-17.75L259.32-17.75Q257.32-17.75 255.88-19.55L255.88-19.55 255.78-19.65Q255.28-20.25 254.65-20.33 254.03-20.4 253.43-19.7L253.43-19.7Q252.93-19.2 252.5-18.53 252.08-17.85 251.73-16.95L251.73-16.95 251.73-3.85Q251.73-2.9 252.13-2.27 252.53-1.65 253.48-1.4L253.48-1.4 254.98-0.95 254.98 0ZM288.52 0L275.32 0 275.32-1.05 276.32-1.3Q277.32-1.6 277.62-2.2 277.92-2.8 277.92-3.85L277.92-3.85Q277.97-6.7 277.97-9.63 277.97-12.55 277.97-15.5L277.97-15.5 277.97-17.55Q277.97-20.45 277.97-23.35 277.97-26.25 277.92-29.15L277.92-29.15Q277.92-30.2 277.6-30.78 277.27-31.35 276.27-31.7L276.27-31.7 275.32-32 275.32-33.05 287.37-33.05Q294.67-33.05 298-30.33 301.32-27.6 301.32-23.15L301.32-23.15Q301.32-20.35 299.94-17.98 298.57-15.6 295.42-14.2 292.27-12.8 286.92-12.8L286.92-12.8 285.12-12.8Q285.12-10.7 285.12-8.47 285.12-6.25 285.17-3.95L285.17-3.95Q285.17-1.9 287.02-1.45L287.02-1.45 288.52-1.05 288.52 0ZM285.12-17.55L285.12-14.25 287.22-14.25Q289.72-14.25 291.3-15.03 292.87-15.8 293.65-17.7 294.42-19.6 294.42-22.95L294.42-22.95Q294.42-26.3 293.6-28.18 292.77-30.05 291.12-30.83 289.47-31.6 287.02-31.6L287.02-31.6 285.17-31.6Q285.12-28.15 285.12-24.63 285.12-21.1 285.12-17.55L285.12-17.55ZM310.52 0.7L310.52 0.7Q307.67 0.7 305.69-0.93 303.72-2.55 303.72-5.6L303.72-5.6Q303.72-8 306.04-10.03 308.37-12.05 313.37-13L313.37-13Q314.22-13.2 315.34-13.38 316.47-13.55 317.57-13.75L317.57-13.75 317.57-17.3Q317.57-20.7 316.72-22 315.87-23.3 314.02-23.3L314.02-23.3 313.87-23.3Q312.72-23.3 312.04-22.58 311.37-21.85 311.17-20.2L311.17-20.2 311.02-19.55Q310.87-17.55 309.97-16.63 309.07-15.7 307.72-15.7L307.72-15.7Q306.47-15.7 305.64-16.48 304.82-17.25 304.82-18.5L304.82-18.5Q304.82-20.55 306.22-21.95 307.62-23.35 309.94-24.05 312.27-24.75 314.97-24.75L314.97-24.75Q319.42-24.75 321.77-22.6 324.12-20.45 324.12-15.6L324.12-15.6 324.12-4.45Q324.12-2.3 326.17-2.3L326.17-2.3 327.32-2.3 327.82-1.75Q326.92-0.6 325.82 0.03 324.72 0.65 322.82 0.65L322.82 0.65Q320.67 0.65 319.39-0.38 318.12-1.4 317.72-3.1L317.72-3.1Q316.12-1.4 314.57-0.35 313.02 0.7 310.52 0.7ZM313.42-2.5L313.42-2.5Q314.42-2.5 315.32-2.95 316.22-3.4 317.57-4.45L317.57-4.45 317.57-12.45Q316.27-12.25 314.92-11.95L314.92-11.95Q312.77-11.45 311.44-10.1 310.12-8.75 310.12-6.45L310.12-6.45Q310.12-4.45 311.04-3.48 311.97-2.5 313.42-2.5ZM341.47 0L328.97 0 328.97-0.95 329.72-1.2Q330.72-1.45 331.09-2.05 331.47-2.65 331.47-3.65L331.47-3.65 331.47-18.3Q331.42-19.4 331.06-19.98 330.72-20.55 329.72-20.75L329.72-20.75 328.97-20.95 328.97-21.85 337.12-24.75 337.72-24.2 338.17-19.8 338.17-19.45Q338.92-20.85 340.06-22.05 341.22-23.25 342.56-24 343.92-24.75 345.27-24.75L345.27-24.75Q347.17-24.75 348.12-23.75 349.06-22.75 349.06-21.2L349.06-21.2Q349.06-19.5 348.12-18.63 347.17-17.75 345.81-17.75L345.81-17.75Q343.81-17.75 342.37-19.55L342.37-19.55 342.27-19.65Q341.77-20.25 341.14-20.33 340.52-20.4 339.92-19.7L339.92-19.7Q339.42-19.2 338.99-18.53 338.56-17.85 338.22-16.95L338.22-16.95 338.22-3.85Q338.22-2.9 338.62-2.27 339.02-1.65 339.97-1.4L339.97-1.4 341.47-0.95 341.47 0ZM357.96 0.7L357.96 0.7Q355.11 0.7 353.14-0.93 351.16-2.55 351.16-5.6L351.16-5.6Q351.16-8 353.49-10.03 355.81-12.05 360.81-13L360.81-13Q361.66-13.2 362.79-13.38 363.91-13.55 365.01-13.75L365.01-13.75 365.01-17.3Q365.01-20.7 364.16-22 363.31-23.3 361.46-23.3L361.46-23.3 361.31-23.3Q360.16-23.3 359.49-22.58 358.81-21.85 358.61-20.2L358.61-20.2 358.46-19.55Q358.31-17.55 357.41-16.63 356.51-15.7 355.16-15.7L355.16-15.7Q353.91-15.7 353.09-16.48 352.26-17.25 352.26-18.5L352.26-18.5Q352.26-20.55 353.66-21.95 355.06-23.35 357.39-24.05 359.71-24.75 362.41-24.75L362.41-24.75Q366.86-24.75 369.21-22.6 371.56-20.45 371.56-15.6L371.56-15.6 371.56-4.45Q371.56-2.3 373.61-2.3L373.61-2.3 374.76-2.3 375.26-1.75Q374.36-0.6 373.26 0.03 372.16 0.65 370.26 0.65L370.26 0.65Q368.11 0.65 366.84-0.38 365.56-1.4 365.16-3.1L365.16-3.1Q363.56-1.4 362.01-0.35 360.46 0.7 357.96 0.7ZM360.86-2.5L360.86-2.5Q361.86-2.5 362.76-2.95 363.66-3.4 365.01-4.45L365.01-4.45 365.01-12.45Q363.71-12.25 362.36-11.95L362.36-11.95Q360.21-11.45 358.89-10.1 357.56-8.75 357.56-6.45L357.56-6.45Q357.56-4.45 358.49-3.48 359.41-2.5 360.86-2.5ZM386.91 0.7L386.91 0.7Q383.96 0.7 381.61-0.63 379.26-1.95 377.94-4.73 376.61-7.5 376.61-11.8L376.61-11.8Q376.61-16.1 378.11-18.98 379.61-21.85 382.11-23.3 384.61-24.75 387.61-24.75L387.61-24.75Q389.41-24.75 391.06-24.33 392.71-23.9 393.96-23.05L393.96-23.05 393.96-29.55Q393.96-30.6 393.63-31.08 393.31-31.55 392.31-31.8L392.31-31.8 391.31-32 391.31-32.95 400.01-35.1 400.66-34.65 400.46-27.6 400.46-3.55Q400.46-2.6 400.81-1.98 401.16-1.35 402.06-1.1L402.06-1.1 402.61-0.95 402.61 0 394.31 0.55 393.86-1.55Q392.51-0.5 390.76 0.1 389.01 0.7 386.91 0.7ZM389.66-1.6L389.66-1.6Q391.81-1.6 393.71-3L393.71-3 393.71-21.6Q391.86-22.75 389.71-22.75L389.71-22.75Q387.26-22.75 385.51-20.18 383.76-17.6 383.76-11.9L383.76-11.9Q383.76-6.2 385.41-3.9 387.06-1.6 389.66-1.6ZM410.66-27.5L410.66-27.5Q409.01-27.5 407.86-28.55 406.71-29.6 406.71-31.2L406.71-31.2Q406.71-32.85 407.86-33.88 409.01-34.9 410.66-34.9L410.66-34.9Q412.31-34.9 413.46-33.88 414.61-32.85 414.61-31.2L414.61-31.2Q414.61-29.6 413.46-28.55 412.31-27.5 410.66-27.5ZM416.36 0L404.91 0 404.91-0.95 405.66-1.15Q406.66-1.45 407.01-2.05 407.36-2.65 407.41-3.65L407.41-3.65 407.41-12.85Q407.41-14.4 407.41-15.73 407.41-17.05 407.36-18.45L407.36-18.45Q407.36-19.45 406.98-20.03 406.61-20.6 405.61-20.8L405.61-20.8 404.91-20.95 404.91-21.85 413.66-24.75 414.26-24.2 414.11-17.1 414.11-3.6Q414.11-2.6 414.48-2 414.86-1.4 415.81-1.1L415.81-1.1 416.36-0.95 416.36 0ZM427.2 0.7L427.2 0.7Q424.81 0.7 422.88 0.18 420.95-0.35 419.2-1.3L419.2-1.3 419.2-7.2 420.56-7.2 422.06-4.35Q423-2.5 424.23-1.6 425.45-0.7 427.36-0.7L427.36-0.7Q429.7-0.7 431.11-1.73 432.5-2.75 432.5-4.5L432.5-4.5Q432.5-6.1 431.45-7.1 430.4-8.1 427.7-8.95L427.7-8.95 425.5-9.65Q422.56-10.55 420.83-12.38 419.11-14.2 419.11-16.95L419.11-16.95Q419.11-19.1 420.25-20.88 421.4-22.65 423.61-23.7 425.81-24.75 428.95-24.75L428.95-24.75Q431-24.75 432.73-24.28 434.45-23.8 436.11-22.95L436.11-22.95 435.81-17.6 434.5-17.6 432.95-20.45Q432.15-22.05 431.33-22.68 430.5-23.3 428.81-23.3L428.81-23.3Q427-23.3 425.63-22.38 424.25-21.45 424.25-19.8L424.25-19.8Q424.25-18.25 425.4-17.28 426.56-16.3 429.11-15.45L429.11-15.45 431.25-14.8Q434.9-13.65 436.45-11.75 438-9.85 438-7.2L438-7.2Q438-3.65 435.18-1.48 432.36 0.7 427.2 0.7ZM452.8-24.75L452.8-24.75Q455.95-24.75 458.2-23.45 460.45-22.15 461.68-19.88 462.9-17.6 462.9-14.65L462.9-14.65Q462.9-14 462.85-13.43 462.8-12.85 462.65-12.35L462.65-12.35 447.6-12.35Q447.65-7.2 449.53-4.95 451.4-2.7 455-2.7L455-2.7Q457.5-2.7 459.05-3.53 460.6-4.35 461.9-5.85L461.9-5.85 462.7-5.1Q461.2-2.35 458.63-0.83 456.05 0.7 452.5 0.7L452.5 0.7Q448.95 0.7 446.25-0.8 443.55-2.3 442.03-5.13 440.5-7.95 440.5-11.9L440.5-11.9Q440.5-16 442.28-18.85 444.05-21.7 446.88-23.23 449.7-24.75 452.8-24.75ZM452.55-23.3L452.55-23.3Q451.1-23.3 450.03-22.48 448.95-21.65 448.33-19.58 447.7-17.5 447.6-13.75L447.6-13.75 456.55-13.75Q457.1-18.8 456.15-21.05 455.2-23.3 452.55-23.3Z" opacity="1" transform="matrix(1,0,0,1,0,0)" fill="#49beb7" class="undefined-text-1" data-fill-palette-color="secondary" id="text-1"></path></svg></g></svg></g></svg></g></svg></g></svg></g></svg><rect width="245.69362704561522" height="280" fill="none" stroke="none" visibility="hidden"></rect></g></svg></g></svg>